<mxfile host="Electron" agent="Mozilla/5.0 (Windows NT 10.0; Win64; x64) AppleWebKit/537.36 (KHTML, like Gecko) draw.io/21.6.8 Chrome/114.0.5735.289 Electron/25.5.0 Safari/537.36" modified="2024-11-01T17:32:47.313Z" etag="2GcXCL50tkuGGv1JvgoW" version="21.6.8" type="device">
  <diagram name="Seite-1" id="5_yMil5gJSfmWAZm3a9V">
    <mxGraphModel dx="1343" dy="782" grid="1" gridSize="10" guides="1" tooltips="1" connect="1" arrows="1" fold="1" page="1" pageScale="1" pageWidth="827" pageHeight="1169" math="0" shadow="0">
      <root>
        <mxCell id="0" />
        <mxCell id="1" parent="0" />
        <mxCell id="2j-rZwEIqoR1VBWoCeoS-139" value="" style="rounded=1;whiteSpace=wrap;html=1;labelBackgroundColor=default;" parent="1" vertex="1">
          <mxGeometry x="310" y="180" width="1070" height="500" as="geometry" />
        </mxCell>
        <mxCell id="L_umMG17DJ18Sw7gHSa4-65" value="" style="shape=flexArrow;endArrow=classic;html=1;rounded=0;entryX=0;entryY=0.5;entryDx=0;entryDy=0;exitX=0.972;exitY=0.518;exitDx=0;exitDy=0;exitPerimeter=0;" edge="1" parent="1" source="L_umMG17DJ18Sw7gHSa4-53" target="L_umMG17DJ18Sw7gHSa4-55">
          <mxGeometry width="50" height="50" relative="1" as="geometry">
            <mxPoint x="1150" y="290" as="sourcePoint" />
            <mxPoint x="1200" y="240" as="targetPoint" />
          </mxGeometry>
        </mxCell>
        <mxCell id="2j-rZwEIqoR1VBWoCeoS-1" value="Software" style="ellipse;shape=cloud;whiteSpace=wrap;html=1;" parent="1" vertex="1">
          <mxGeometry x="400" y="310" width="310" height="210" as="geometry" />
        </mxCell>
        <mxCell id="h8aSxiHESVSjdpus-O2o-128" style="edgeStyle=orthogonalEdgeStyle;rounded=0;orthogonalLoop=1;jettySize=auto;html=1;exitX=0;exitY=0.5;exitDx=0;exitDy=0;endArrow=none;endFill=0;startArrow=classic;startFill=1;" parent="1" source="2j-rZwEIqoR1VBWoCeoS-50" edge="1">
          <mxGeometry relative="1" as="geometry">
            <mxPoint x="964.5" y="274.09000000000003" as="targetPoint" />
            <mxPoint x="1022" y="274.10144927536237" as="sourcePoint" />
          </mxGeometry>
        </mxCell>
        <mxCell id="L_umMG17DJ18Sw7gHSa4-61" style="edgeStyle=orthogonalEdgeStyle;rounded=0;orthogonalLoop=1;jettySize=auto;html=1;exitX=1;exitY=0.5;exitDx=0;exitDy=0;entryX=0;entryY=0.191;entryDx=0;entryDy=0;entryPerimeter=0;" edge="1" parent="1" source="2j-rZwEIqoR1VBWoCeoS-50" target="L_umMG17DJ18Sw7gHSa4-53">
          <mxGeometry relative="1" as="geometry" />
        </mxCell>
        <mxCell id="2j-rZwEIqoR1VBWoCeoS-50" value="" style="whiteSpace=wrap;html=1;aspect=fixed;verticalAlign=bottom;labelPosition=center;verticalLabelPosition=top;align=center;horizontal=1;" parent="1" vertex="1">
          <mxGeometry x="1040" y="269.09000000000003" width="10" height="10" as="geometry" />
        </mxCell>
        <mxCell id="h8aSxiHESVSjdpus-O2o-129" style="edgeStyle=orthogonalEdgeStyle;rounded=0;orthogonalLoop=1;jettySize=auto;html=1;exitX=0;exitY=0.5;exitDx=0;exitDy=0;startArrow=classic;startFill=1;endArrow=none;endFill=0;" parent="1" source="2j-rZwEIqoR1VBWoCeoS-61" edge="1">
          <mxGeometry relative="1" as="geometry">
            <mxPoint x="964.5" y="284.09000000000003" as="targetPoint" />
            <mxPoint x="1022" y="284.10144927536237" as="sourcePoint" />
          </mxGeometry>
        </mxCell>
        <mxCell id="L_umMG17DJ18Sw7gHSa4-56" style="edgeStyle=orthogonalEdgeStyle;rounded=0;orthogonalLoop=1;jettySize=auto;html=1;entryX=1;entryY=0.25;entryDx=0;entryDy=0;endArrow=none;endFill=0;startArrow=classicThin;startFill=1;" edge="1" parent="1" source="2j-rZwEIqoR1VBWoCeoS-61" target="L_umMG17DJ18Sw7gHSa4-55">
          <mxGeometry relative="1" as="geometry">
            <Array as="points">
              <mxPoint x="1080" y="284" />
              <mxPoint x="1080" y="240" />
              <mxPoint x="1360" y="240" />
              <mxPoint x="1360" y="280" />
            </Array>
          </mxGeometry>
        </mxCell>
        <mxCell id="2j-rZwEIqoR1VBWoCeoS-61" value="" style="whiteSpace=wrap;html=1;aspect=fixed;verticalAlign=bottom;labelPosition=center;verticalLabelPosition=top;align=center;horizontal=1;" parent="1" vertex="1">
          <mxGeometry x="1040" y="279.09000000000003" width="10" height="10" as="geometry" />
        </mxCell>
        <mxCell id="h8aSxiHESVSjdpus-O2o-130" style="edgeStyle=orthogonalEdgeStyle;rounded=0;orthogonalLoop=1;jettySize=auto;html=1;exitX=0;exitY=0.5;exitDx=0;exitDy=0;" parent="1" source="2j-rZwEIqoR1VBWoCeoS-62" edge="1">
          <mxGeometry relative="1" as="geometry">
            <mxPoint x="964.5" y="294.09000000000003" as="targetPoint" />
            <mxPoint x="1022" y="294.10144927536237" as="sourcePoint" />
          </mxGeometry>
        </mxCell>
        <mxCell id="L_umMG17DJ18Sw7gHSa4-62" style="edgeStyle=orthogonalEdgeStyle;rounded=0;orthogonalLoop=1;jettySize=auto;html=1;entryX=-0.008;entryY=0.435;entryDx=0;entryDy=0;entryPerimeter=0;" edge="1" parent="1" source="2j-rZwEIqoR1VBWoCeoS-62" target="L_umMG17DJ18Sw7gHSa4-53">
          <mxGeometry relative="1" as="geometry" />
        </mxCell>
        <mxCell id="2j-rZwEIqoR1VBWoCeoS-62" value="" style="whiteSpace=wrap;html=1;aspect=fixed;verticalAlign=bottom;labelPosition=center;verticalLabelPosition=top;align=center;horizontal=1;" parent="1" vertex="1">
          <mxGeometry x="1040" y="289.09000000000003" width="10" height="10" as="geometry" />
        </mxCell>
        <mxCell id="h8aSxiHESVSjdpus-O2o-131" style="edgeStyle=orthogonalEdgeStyle;rounded=0;orthogonalLoop=1;jettySize=auto;html=1;exitX=0;exitY=0.5;exitDx=0;exitDy=0;startArrow=classic;startFill=1;endArrow=none;endFill=0;" parent="1" source="2j-rZwEIqoR1VBWoCeoS-63" edge="1">
          <mxGeometry relative="1" as="geometry">
            <mxPoint x="964.5" y="304.09000000000003" as="targetPoint" />
            <mxPoint x="1022" y="304.10144927536237" as="sourcePoint" />
          </mxGeometry>
        </mxCell>
        <mxCell id="L_umMG17DJ18Sw7gHSa4-60" style="edgeStyle=orthogonalEdgeStyle;rounded=0;orthogonalLoop=1;jettySize=auto;html=1;exitX=1;exitY=0.5;exitDx=0;exitDy=0;entryX=-0.005;entryY=0.561;entryDx=0;entryDy=0;entryPerimeter=0;" edge="1" parent="1" source="2j-rZwEIqoR1VBWoCeoS-63" target="L_umMG17DJ18Sw7gHSa4-53">
          <mxGeometry relative="1" as="geometry" />
        </mxCell>
        <mxCell id="2j-rZwEIqoR1VBWoCeoS-63" value="" style="whiteSpace=wrap;html=1;aspect=fixed;verticalAlign=bottom;labelPosition=center;verticalLabelPosition=top;align=center;horizontal=1;" parent="1" vertex="1">
          <mxGeometry x="1040" y="299.09000000000003" width="10" height="10" as="geometry" />
        </mxCell>
        <mxCell id="2j-rZwEIqoR1VBWoCeoS-65" value="&lt;div&gt;MOSI (PA1)&lt;/div&gt;" style="text;html=1;align=center;verticalAlign=middle;whiteSpace=wrap;rounded=0;rotation=0;fontSize=9;horizontal=1;fontFamily=Lucida Console;" parent="1" vertex="1">
          <mxGeometry x="962.5" y="264.09000000000003" width="80" height="10" as="geometry" />
        </mxCell>
        <mxCell id="2j-rZwEIqoR1VBWoCeoS-66" value="SCK (PA3)" style="text;html=1;align=center;verticalAlign=middle;whiteSpace=wrap;rounded=0;rotation=0;fontSize=9;horizontal=1;fontFamily=Lucida Console;" parent="1" vertex="1">
          <mxGeometry x="962.5" y="285.09000000000003" width="80" height="10" as="geometry" />
        </mxCell>
        <mxCell id="2j-rZwEIqoR1VBWoCeoS-67" value="MISO (PA2)" style="text;html=1;align=center;verticalAlign=middle;whiteSpace=wrap;rounded=0;rotation=0;fontSize=9;horizontal=1;fontFamily=Lucida Console;" parent="1" vertex="1">
          <mxGeometry x="962.5" y="275.09000000000003" width="80" height="10" as="geometry" />
        </mxCell>
        <mxCell id="2j-rZwEIqoR1VBWoCeoS-68" value="SS (PA4)" style="text;html=1;align=center;verticalAlign=middle;whiteSpace=wrap;rounded=0;rotation=0;fontSize=9;horizontal=1;fontFamily=Lucida Console;" parent="1" vertex="1">
          <mxGeometry x="962.5" y="295.09000000000003" width="80" height="10" as="geometry" />
        </mxCell>
        <mxCell id="2j-rZwEIqoR1VBWoCeoS-135" value="UART" style="rounded=0;whiteSpace=wrap;html=1;verticalAlign=top;" parent="1" vertex="1">
          <mxGeometry x="476" y="570" width="125" height="50" as="geometry" />
        </mxCell>
        <mxCell id="2j-rZwEIqoR1VBWoCeoS-136" value="" style="endArrow=none;dashed=1;html=1;rounded=0;exitX=0;exitY=0.5;exitDx=0;exitDy=0;entryX=1;entryY=0.5;entryDx=0;entryDy=0;" parent="1" source="2j-rZwEIqoR1VBWoCeoS-135" target="2j-rZwEIqoR1VBWoCeoS-135" edge="1">
          <mxGeometry width="50" height="50" relative="1" as="geometry">
            <mxPoint x="646" y="600" as="sourcePoint" />
            <mxPoint x="696" y="550" as="targetPoint" />
          </mxGeometry>
        </mxCell>
        <mxCell id="2j-rZwEIqoR1VBWoCeoS-140" style="edgeStyle=orthogonalEdgeStyle;rounded=0;orthogonalLoop=1;jettySize=auto;html=1;exitX=0;exitY=0.25;exitDx=0;exitDy=0;startArrow=classic;startFill=1;endArrow=none;endFill=0;entryX=1;entryY=0.5;entryDx=0;entryDy=0;" parent="1" edge="1">
          <mxGeometry relative="1" as="geometry">
            <mxPoint x="446" y="580" as="targetPoint" />
            <mxPoint x="476" y="580.5" as="sourcePoint" />
          </mxGeometry>
        </mxCell>
        <mxCell id="2j-rZwEIqoR1VBWoCeoS-141" value="Databits" style="text;html=1;align=right;verticalAlign=middle;whiteSpace=wrap;rounded=0;rotation=0;fontSize=9;horizontal=1;fontFamily=Lucida Console;" parent="1" vertex="1">
          <mxGeometry x="356" y="576" width="90" height="10" as="geometry" />
        </mxCell>
        <mxCell id="2j-rZwEIqoR1VBWoCeoS-142" value="" style="endArrow=none;html=1;strokeWidth=2;rounded=0;strokeColor=#999999;" parent="1" edge="1">
          <mxGeometry width="50" height="50" relative="1" as="geometry">
            <mxPoint x="462" y="592" as="sourcePoint" />
            <mxPoint x="452" y="572" as="targetPoint" />
          </mxGeometry>
        </mxCell>
        <mxCell id="2j-rZwEIqoR1VBWoCeoS-143" value="3" style="edgeLabel;html=1;align=left;verticalAlign=bottom;resizable=0;points=[];labelPosition=right;verticalLabelPosition=middle;fontColor=#999999;" parent="2j-rZwEIqoR1VBWoCeoS-142" vertex="1" connectable="0">
          <mxGeometry x="-0.44" y="1" relative="1" as="geometry">
            <mxPoint x="-12" y="-15" as="offset" />
          </mxGeometry>
        </mxCell>
        <mxCell id="2j-rZwEIqoR1VBWoCeoS-146" style="edgeStyle=orthogonalEdgeStyle;rounded=0;orthogonalLoop=1;jettySize=auto;html=1;exitX=0;exitY=0.25;exitDx=0;exitDy=0;startArrow=classic;startFill=1;endArrow=none;endFill=0;" parent="1" edge="1">
          <mxGeometry relative="1" as="geometry">
            <mxPoint x="446" y="609.92" as="targetPoint" />
            <mxPoint x="476" y="609.92" as="sourcePoint" />
          </mxGeometry>
        </mxCell>
        <mxCell id="2j-rZwEIqoR1VBWoCeoS-147" value="" style="endArrow=none;html=1;strokeWidth=2;rounded=0;strokeColor=#999999;verticalAlign=top;" parent="1" edge="1">
          <mxGeometry width="50" height="50" relative="1" as="geometry">
            <mxPoint x="462" y="620" as="sourcePoint" />
            <mxPoint x="452" y="600" as="targetPoint" />
          </mxGeometry>
        </mxCell>
        <mxCell id="2j-rZwEIqoR1VBWoCeoS-148" value="2" style="edgeLabel;html=1;align=left;verticalAlign=top;resizable=0;points=[];labelPosition=right;verticalLabelPosition=middle;fontColor=#999999;" parent="2j-rZwEIqoR1VBWoCeoS-147" vertex="1" connectable="0">
          <mxGeometry x="-0.44" y="1" relative="1" as="geometry">
            <mxPoint x="3" y="-5" as="offset" />
          </mxGeometry>
        </mxCell>
        <mxCell id="2j-rZwEIqoR1VBWoCeoS-149" value="Paritybit" style="text;html=1;align=right;verticalAlign=middle;whiteSpace=wrap;rounded=0;rotation=0;fontSize=9;horizontal=1;fontFamily=Lucida Console;" parent="1" vertex="1">
          <mxGeometry x="356" y="604" width="90" height="10" as="geometry" />
        </mxCell>
        <mxCell id="2j-rZwEIqoR1VBWoCeoS-150" style="edgeStyle=orthogonalEdgeStyle;rounded=0;orthogonalLoop=1;jettySize=auto;html=1;exitX=0;exitY=0.25;exitDx=0;exitDy=0;startArrow=classic;startFill=1;endArrow=none;endFill=0;" parent="1" edge="1">
          <mxGeometry relative="1" as="geometry">
            <mxPoint x="446" y="595" as="targetPoint" />
            <mxPoint x="476" y="595" as="sourcePoint" />
          </mxGeometry>
        </mxCell>
        <mxCell id="2j-rZwEIqoR1VBWoCeoS-151" value="Stopbits" style="text;html=1;align=right;verticalAlign=middle;whiteSpace=wrap;rounded=0;rotation=0;fontSize=9;horizontal=1;fontFamily=Lucida Console;" parent="1" vertex="1">
          <mxGeometry x="356" y="590" width="90" height="10" as="geometry" />
        </mxCell>
        <mxCell id="L_umMG17DJ18Sw7gHSa4-14" style="edgeStyle=orthogonalEdgeStyle;rounded=0;orthogonalLoop=1;jettySize=auto;html=1;exitX=1;exitY=0.5;exitDx=0;exitDy=0;entryX=0;entryY=0.866;entryDx=0;entryDy=0;entryPerimeter=0;startArrow=classic;startFill=1;endArrow=none;endFill=0;" edge="1" parent="1" source="2j-rZwEIqoR1VBWoCeoS-152" target="L_umMG17DJ18Sw7gHSa4-8">
          <mxGeometry relative="1" as="geometry" />
        </mxCell>
        <mxCell id="2j-rZwEIqoR1VBWoCeoS-152" value="" style="whiteSpace=wrap;html=1;aspect=fixed;verticalAlign=bottom;labelPosition=center;verticalLabelPosition=top;align=center;horizontal=1;" parent="1" vertex="1">
          <mxGeometry x="676" y="576" width="10" height="10" as="geometry" />
        </mxCell>
        <mxCell id="2j-rZwEIqoR1VBWoCeoS-157" style="edgeStyle=orthogonalEdgeStyle;rounded=0;orthogonalLoop=1;jettySize=auto;html=1;exitX=0;exitY=0.5;exitDx=0;exitDy=0;endArrow=none;endFill=0;startArrow=classic;startFill=1;" parent="1" source="2j-rZwEIqoR1VBWoCeoS-153" edge="1">
          <mxGeometry relative="1" as="geometry">
            <mxPoint x="601" y="608.9710144927536" as="targetPoint" />
            <mxPoint x="626" y="609" as="sourcePoint" />
          </mxGeometry>
        </mxCell>
        <mxCell id="L_umMG17DJ18Sw7gHSa4-15" style="edgeStyle=orthogonalEdgeStyle;rounded=0;orthogonalLoop=1;jettySize=auto;html=1;exitX=1;exitY=0.5;exitDx=0;exitDy=0;entryX=0.001;entryY=0.726;entryDx=0;entryDy=0;entryPerimeter=0;" edge="1" parent="1" source="2j-rZwEIqoR1VBWoCeoS-153" target="L_umMG17DJ18Sw7gHSa4-5">
          <mxGeometry relative="1" as="geometry" />
        </mxCell>
        <mxCell id="2j-rZwEIqoR1VBWoCeoS-153" value="" style="whiteSpace=wrap;html=1;aspect=fixed;verticalAlign=bottom;labelPosition=center;verticalLabelPosition=top;align=center;horizontal=1;" parent="1" vertex="1">
          <mxGeometry x="676" y="604" width="10" height="10" as="geometry" />
        </mxCell>
        <mxCell id="2j-rZwEIqoR1VBWoCeoS-154" value="RxD (PB3)" style="text;html=1;align=center;verticalAlign=middle;whiteSpace=wrap;rounded=0;rotation=0;fontSize=9;horizontal=1;fontFamily=Lucida Console;" parent="1" vertex="1">
          <mxGeometry x="601" y="566" width="70" height="10" as="geometry" />
        </mxCell>
        <mxCell id="2j-rZwEIqoR1VBWoCeoS-155" value="TxD (PB2)" style="text;html=1;align=center;verticalAlign=middle;whiteSpace=wrap;rounded=0;rotation=0;fontSize=9;horizontal=1;fontFamily=Lucida Console;" parent="1" vertex="1">
          <mxGeometry x="601" y="614" width="70" height="10" as="geometry" />
        </mxCell>
        <mxCell id="2j-rZwEIqoR1VBWoCeoS-158" style="edgeStyle=orthogonalEdgeStyle;rounded=0;orthogonalLoop=1;jettySize=auto;html=1;exitX=0;exitY=0.5;exitDx=0;exitDy=0;" parent="1" source="2j-rZwEIqoR1VBWoCeoS-152" edge="1">
          <mxGeometry relative="1" as="geometry">
            <mxPoint x="601" y="580.9610144927536" as="targetPoint" />
            <mxPoint x="631" y="580.99" as="sourcePoint" />
          </mxGeometry>
        </mxCell>
        <mxCell id="2j-rZwEIqoR1VBWoCeoS-167" value="" style="endArrow=none;html=1;strokeWidth=2;rounded=0;strokeColor=#999999;" parent="1" edge="1">
          <mxGeometry width="50" height="50" relative="1" as="geometry">
            <mxPoint x="548.5" y="644" as="sourcePoint" />
            <mxPoint x="528.5" y="634" as="targetPoint" />
          </mxGeometry>
        </mxCell>
        <mxCell id="2j-rZwEIqoR1VBWoCeoS-168" value="12" style="edgeLabel;html=1;align=left;verticalAlign=bottom;resizable=0;points=[];labelPosition=right;verticalLabelPosition=middle;fontColor=#999999;" parent="2j-rZwEIqoR1VBWoCeoS-167" vertex="1" connectable="0">
          <mxGeometry x="-0.44" y="1" relative="1" as="geometry">
            <mxPoint as="offset" />
          </mxGeometry>
        </mxCell>
        <mxCell id="2j-rZwEIqoR1VBWoCeoS-169" value="" style="edgeStyle=orthogonalEdgeStyle;rounded=0;orthogonalLoop=1;jettySize=auto;html=1;" parent="1" edge="1">
          <mxGeometry relative="1" as="geometry">
            <mxPoint x="538.5" y="620" as="targetPoint" />
            <mxPoint x="538.5" y="650" as="sourcePoint" />
          </mxGeometry>
        </mxCell>
        <mxCell id="2j-rZwEIqoR1VBWoCeoS-170" value="Baudrate" style="text;html=1;align=center;verticalAlign=middle;whiteSpace=wrap;rounded=0;rotation=0;fontSize=9;horizontal=1;fontFamily=Lucida Console;" parent="1" vertex="1">
          <mxGeometry x="480" y="650" width="110" height="10" as="geometry" />
        </mxCell>
        <mxCell id="h8aSxiHESVSjdpus-O2o-61" value="TWI" style="rounded=0;whiteSpace=wrap;html=1;verticalAlign=top;" parent="1" vertex="1">
          <mxGeometry x="760" y="430" width="125" height="50" as="geometry" />
        </mxCell>
        <mxCell id="h8aSxiHESVSjdpus-O2o-62" value="" style="endArrow=none;dashed=1;html=1;rounded=0;exitX=0;exitY=0.5;exitDx=0;exitDy=0;entryX=1;entryY=0.5;entryDx=0;entryDy=0;" parent="1" source="h8aSxiHESVSjdpus-O2o-61" target="h8aSxiHESVSjdpus-O2o-61" edge="1">
          <mxGeometry width="50" height="50" relative="1" as="geometry">
            <mxPoint x="929.9999999999999" y="460" as="sourcePoint" />
            <mxPoint x="980" y="410" as="targetPoint" />
          </mxGeometry>
        </mxCell>
        <mxCell id="L_umMG17DJ18Sw7gHSa4-22" style="edgeStyle=orthogonalEdgeStyle;rounded=0;orthogonalLoop=1;jettySize=auto;html=1;entryX=-0.003;entryY=0.336;entryDx=0;entryDy=0;entryPerimeter=0;" edge="1" parent="1" source="h8aSxiHESVSjdpus-O2o-73" target="L_umMG17DJ18Sw7gHSa4-16">
          <mxGeometry relative="1" as="geometry" />
        </mxCell>
        <mxCell id="h8aSxiHESVSjdpus-O2o-73" value="" style="whiteSpace=wrap;html=1;aspect=fixed;verticalAlign=bottom;labelPosition=center;verticalLabelPosition=top;align=center;horizontal=1;" parent="1" vertex="1">
          <mxGeometry x="960" y="436" width="10" height="10" as="geometry" />
        </mxCell>
        <mxCell id="h8aSxiHESVSjdpus-O2o-74" style="edgeStyle=orthogonalEdgeStyle;rounded=0;orthogonalLoop=1;jettySize=auto;html=1;exitX=0;exitY=0.5;exitDx=0;exitDy=0;endArrow=classic;endFill=1;startArrow=classic;startFill=1;" parent="1" source="h8aSxiHESVSjdpus-O2o-75" edge="1">
          <mxGeometry relative="1" as="geometry">
            <mxPoint x="885" y="468.9710144927536" as="targetPoint" />
            <mxPoint x="909.9999999999999" y="469" as="sourcePoint" />
          </mxGeometry>
        </mxCell>
        <mxCell id="L_umMG17DJ18Sw7gHSa4-23" style="edgeStyle=orthogonalEdgeStyle;rounded=0;orthogonalLoop=1;jettySize=auto;html=1;exitX=1;exitY=0.5;exitDx=0;exitDy=0;entryX=-0.003;entryY=0.665;entryDx=0;entryDy=0;entryPerimeter=0;startArrow=classic;startFill=1;" edge="1" parent="1" source="h8aSxiHESVSjdpus-O2o-75" target="L_umMG17DJ18Sw7gHSa4-16">
          <mxGeometry relative="1" as="geometry" />
        </mxCell>
        <mxCell id="h8aSxiHESVSjdpus-O2o-75" value="" style="whiteSpace=wrap;html=1;aspect=fixed;verticalAlign=bottom;labelPosition=center;verticalLabelPosition=top;align=center;horizontal=1;" parent="1" vertex="1">
          <mxGeometry x="960" y="464" width="10" height="10" as="geometry" />
        </mxCell>
        <mxCell id="h8aSxiHESVSjdpus-O2o-76" value="SCL (PB0)" style="text;html=1;align=center;verticalAlign=middle;whiteSpace=wrap;rounded=0;rotation=0;fontSize=9;horizontal=1;fontFamily=Lucida Console;" parent="1" vertex="1">
          <mxGeometry x="885" y="426" width="70" height="10" as="geometry" />
        </mxCell>
        <mxCell id="h8aSxiHESVSjdpus-O2o-77" value="SDA (PB1)" style="text;html=1;align=center;verticalAlign=middle;whiteSpace=wrap;rounded=0;rotation=0;fontSize=9;horizontal=1;fontFamily=Lucida Console;" parent="1" vertex="1">
          <mxGeometry x="885" y="474" width="70" height="10" as="geometry" />
        </mxCell>
        <mxCell id="h8aSxiHESVSjdpus-O2o-78" style="edgeStyle=orthogonalEdgeStyle;rounded=0;orthogonalLoop=1;jettySize=auto;html=1;exitX=0;exitY=0.5;exitDx=0;exitDy=0;endArrow=none;endFill=0;startArrow=classic;startFill=1;" parent="1" source="h8aSxiHESVSjdpus-O2o-73" edge="1">
          <mxGeometry relative="1" as="geometry">
            <mxPoint x="885" y="440.96101449275363" as="targetPoint" />
            <mxPoint x="914.9999999999999" y="440.99" as="sourcePoint" />
          </mxGeometry>
        </mxCell>
        <mxCell id="h8aSxiHESVSjdpus-O2o-79" value="" style="endArrow=none;html=1;strokeWidth=2;rounded=0;strokeColor=#999999;" parent="1" edge="1">
          <mxGeometry width="50" height="50" relative="1" as="geometry">
            <mxPoint x="832.5" y="504" as="sourcePoint" />
            <mxPoint x="812.5" y="494" as="targetPoint" />
          </mxGeometry>
        </mxCell>
        <mxCell id="h8aSxiHESVSjdpus-O2o-80" value="8" style="edgeLabel;html=1;align=left;verticalAlign=bottom;resizable=0;points=[];labelPosition=right;verticalLabelPosition=middle;fontColor=#999999;" parent="h8aSxiHESVSjdpus-O2o-79" vertex="1" connectable="0">
          <mxGeometry x="-0.44" y="1" relative="1" as="geometry">
            <mxPoint as="offset" />
          </mxGeometry>
        </mxCell>
        <mxCell id="h8aSxiHESVSjdpus-O2o-81" value="" style="edgeStyle=orthogonalEdgeStyle;rounded=0;orthogonalLoop=1;jettySize=auto;html=1;" parent="1" source="h8aSxiHESVSjdpus-O2o-82" edge="1">
          <mxGeometry relative="1" as="geometry">
            <mxPoint x="822.5" y="480" as="targetPoint" />
          </mxGeometry>
        </mxCell>
        <mxCell id="h8aSxiHESVSjdpus-O2o-82" value="Baudrate" style="text;html=1;align=center;verticalAlign=middle;whiteSpace=wrap;rounded=0;rotation=0;fontSize=9;horizontal=1;fontFamily=Lucida Console;" parent="1" vertex="1">
          <mxGeometry x="767.5" y="510" width="110" height="10" as="geometry" />
        </mxCell>
        <mxCell id="h8aSxiHESVSjdpus-O2o-95" value="SPI" style="rounded=0;whiteSpace=wrap;html=1;verticalAlign=top;" parent="1" vertex="1">
          <mxGeometry x="840" y="264.09000000000003" width="125" height="50" as="geometry" />
        </mxCell>
        <mxCell id="h8aSxiHESVSjdpus-O2o-96" value="" style="endArrow=none;dashed=1;html=1;rounded=0;exitX=0;exitY=0.5;exitDx=0;exitDy=0;entryX=1;entryY=0.5;entryDx=0;entryDy=0;" parent="1" source="h8aSxiHESVSjdpus-O2o-95" target="h8aSxiHESVSjdpus-O2o-95" edge="1">
          <mxGeometry width="50" height="50" relative="1" as="geometry">
            <mxPoint x="1010" y="294.09000000000003" as="sourcePoint" />
            <mxPoint x="1060" y="244.09000000000003" as="targetPoint" />
          </mxGeometry>
        </mxCell>
        <mxCell id="h8aSxiHESVSjdpus-O2o-97" style="edgeStyle=orthogonalEdgeStyle;rounded=0;orthogonalLoop=1;jettySize=auto;html=1;exitX=0;exitY=0.25;exitDx=0;exitDy=0;startArrow=classic;startFill=1;endArrow=none;endFill=0;entryX=1;entryY=0.5;entryDx=0;entryDy=0;" parent="1" edge="1">
          <mxGeometry relative="1" as="geometry">
            <mxPoint x="810" y="274.09000000000003" as="targetPoint" />
            <mxPoint x="840" y="274.59000000000003" as="sourcePoint" />
          </mxGeometry>
        </mxCell>
        <mxCell id="h8aSxiHESVSjdpus-O2o-98" value="Phase/Polarity" style="text;html=1;align=right;verticalAlign=middle;whiteSpace=wrap;rounded=0;rotation=0;fontSize=9;horizontal=1;fontFamily=Lucida Console;" parent="1" vertex="1">
          <mxGeometry x="720" y="270.09000000000003" width="90" height="10" as="geometry" />
        </mxCell>
        <mxCell id="h8aSxiHESVSjdpus-O2o-99" value="" style="endArrow=none;html=1;strokeWidth=2;rounded=0;strokeColor=#999999;" parent="1" edge="1">
          <mxGeometry width="50" height="50" relative="1" as="geometry">
            <mxPoint x="826" y="286.09000000000003" as="sourcePoint" />
            <mxPoint x="816" y="266.09000000000003" as="targetPoint" />
          </mxGeometry>
        </mxCell>
        <mxCell id="h8aSxiHESVSjdpus-O2o-100" value="2" style="edgeLabel;html=1;align=left;verticalAlign=bottom;resizable=0;points=[];labelPosition=right;verticalLabelPosition=middle;fontColor=#999999;" parent="h8aSxiHESVSjdpus-O2o-99" vertex="1" connectable="0">
          <mxGeometry x="-0.44" y="1" relative="1" as="geometry">
            <mxPoint x="-12" y="-15" as="offset" />
          </mxGeometry>
        </mxCell>
        <mxCell id="h8aSxiHESVSjdpus-O2o-101" style="edgeStyle=orthogonalEdgeStyle;rounded=0;orthogonalLoop=1;jettySize=auto;html=1;exitX=0;exitY=0.25;exitDx=0;exitDy=0;startArrow=classic;startFill=1;endArrow=none;endFill=0;" parent="1" edge="1">
          <mxGeometry relative="1" as="geometry">
            <mxPoint x="810" y="304.01" as="targetPoint" />
            <mxPoint x="840" y="304.01" as="sourcePoint" />
          </mxGeometry>
        </mxCell>
        <mxCell id="h8aSxiHESVSjdpus-O2o-104" value="Double Speed" style="text;html=1;align=right;verticalAlign=middle;whiteSpace=wrap;rounded=0;rotation=0;fontSize=9;horizontal=1;fontFamily=Lucida Console;" parent="1" vertex="1">
          <mxGeometry x="720" y="298.09000000000003" width="90" height="10" as="geometry" />
        </mxCell>
        <mxCell id="h8aSxiHESVSjdpus-O2o-105" style="edgeStyle=orthogonalEdgeStyle;rounded=0;orthogonalLoop=1;jettySize=auto;html=1;exitX=0;exitY=0.25;exitDx=0;exitDy=0;startArrow=classic;startFill=1;endArrow=none;endFill=0;" parent="1" edge="1">
          <mxGeometry relative="1" as="geometry">
            <mxPoint x="810" y="289.09000000000003" as="targetPoint" />
            <mxPoint x="840" y="289.09000000000003" as="sourcePoint" />
          </mxGeometry>
        </mxCell>
        <mxCell id="h8aSxiHESVSjdpus-O2o-106" value="Direction" style="text;html=1;align=right;verticalAlign=middle;whiteSpace=wrap;rounded=0;rotation=0;fontSize=9;horizontal=1;fontFamily=Lucida Console;" parent="1" vertex="1">
          <mxGeometry x="720" y="284.09000000000003" width="90" height="10" as="geometry" />
        </mxCell>
        <mxCell id="h8aSxiHESVSjdpus-O2o-113" value="" style="endArrow=none;html=1;strokeWidth=2;rounded=0;strokeColor=#999999;" parent="1" edge="1">
          <mxGeometry width="50" height="50" relative="1" as="geometry">
            <mxPoint x="912.5" y="252" as="sourcePoint" />
            <mxPoint x="892.5" y="242" as="targetPoint" />
          </mxGeometry>
        </mxCell>
        <mxCell id="h8aSxiHESVSjdpus-O2o-114" value="4" style="edgeLabel;html=1;align=left;verticalAlign=bottom;resizable=0;points=[];labelPosition=right;verticalLabelPosition=middle;fontColor=#999999;" parent="h8aSxiHESVSjdpus-O2o-113" vertex="1" connectable="0">
          <mxGeometry x="-0.44" y="1" relative="1" as="geometry">
            <mxPoint as="offset" />
          </mxGeometry>
        </mxCell>
        <mxCell id="h8aSxiHESVSjdpus-O2o-115" value="" style="edgeStyle=orthogonalEdgeStyle;rounded=0;orthogonalLoop=1;jettySize=auto;html=1;endArrow=none;endFill=0;startArrow=classic;startFill=1;" parent="1" edge="1">
          <mxGeometry relative="1" as="geometry">
            <mxPoint x="902.25" y="234" as="targetPoint" />
            <mxPoint x="902.25" y="264" as="sourcePoint" />
          </mxGeometry>
        </mxCell>
        <mxCell id="h8aSxiHESVSjdpus-O2o-116" value="Prescaler" style="text;html=1;align=center;verticalAlign=middle;whiteSpace=wrap;rounded=0;rotation=0;fontSize=9;horizontal=1;fontFamily=Lucida Console;" parent="1" vertex="1">
          <mxGeometry x="847.5" y="224" width="110" height="10" as="geometry" />
        </mxCell>
        <mxCell id="h8aSxiHESVSjdpus-O2o-132" value="" style="shape=flexArrow;endArrow=classic;html=1;rounded=0;startArrow=block;" parent="1" edge="1">
          <mxGeometry width="50" height="50" relative="1" as="geometry">
            <mxPoint x="700" y="455" as="sourcePoint" />
            <mxPoint x="760" y="455" as="targetPoint" />
          </mxGeometry>
        </mxCell>
        <mxCell id="h8aSxiHESVSjdpus-O2o-137" value="3" style="text;html=1;align=left;verticalAlign=middle;whiteSpace=wrap;rounded=0;rotation=0;fontSize=9;horizontal=1;fontFamily=Lucida Console;" parent="1" vertex="1">
          <mxGeometry x="575" y="272" width="10" height="10" as="geometry" />
        </mxCell>
        <mxCell id="h8aSxiHESVSjdpus-O2o-157" style="edgeStyle=orthogonalEdgeStyle;rounded=0;orthogonalLoop=1;jettySize=auto;html=1;exitX=0.5;exitY=0;exitDx=0;exitDy=0;entryX=0;entryY=0.8;entryDx=0;entryDy=0;endArrow=none;endFill=0;" parent="1" source="h8aSxiHESVSjdpus-O2o-138" edge="1">
          <mxGeometry relative="1" as="geometry">
            <mxPoint x="594.9239999999998" y="249.28999999999996" as="targetPoint" />
          </mxGeometry>
        </mxCell>
        <mxCell id="h8aSxiHESVSjdpus-O2o-138" value="" style="whiteSpace=wrap;html=1;aspect=fixed;verticalAlign=bottom;labelPosition=center;verticalLabelPosition=top;align=center;horizontal=1;" parent="1" vertex="1">
          <mxGeometry x="590" y="260" width="10" height="10" as="geometry" />
        </mxCell>
        <mxCell id="h8aSxiHESVSjdpus-O2o-159" style="edgeStyle=orthogonalEdgeStyle;rounded=0;orthogonalLoop=1;jettySize=auto;html=1;exitX=0.5;exitY=0;exitDx=0;exitDy=0;entryX=0;entryY=0.8;entryDx=0;entryDy=0;endArrow=none;endFill=0;" parent="1" source="h8aSxiHESVSjdpus-O2o-139" edge="1">
          <mxGeometry relative="1" as="geometry">
            <mxPoint x="604.9239999999998" y="249.28999999999996" as="targetPoint" />
          </mxGeometry>
        </mxCell>
        <mxCell id="h8aSxiHESVSjdpus-O2o-139" value="" style="whiteSpace=wrap;html=1;aspect=fixed;verticalAlign=bottom;labelPosition=center;verticalLabelPosition=top;align=center;horizontal=1;" parent="1" vertex="1">
          <mxGeometry x="600" y="260" width="10" height="10" as="geometry" />
        </mxCell>
        <mxCell id="h8aSxiHESVSjdpus-O2o-161" style="edgeStyle=orthogonalEdgeStyle;rounded=0;orthogonalLoop=1;jettySize=auto;html=1;exitX=0.5;exitY=0;exitDx=0;exitDy=0;entryX=0;entryY=0.8;entryDx=0;entryDy=0;endArrow=none;endFill=0;" parent="1" source="h8aSxiHESVSjdpus-O2o-140" edge="1">
          <mxGeometry relative="1" as="geometry">
            <mxPoint x="614.9239999999998" y="249.28999999999996" as="targetPoint" />
          </mxGeometry>
        </mxCell>
        <mxCell id="h8aSxiHESVSjdpus-O2o-140" value="" style="whiteSpace=wrap;html=1;aspect=fixed;verticalAlign=bottom;labelPosition=center;verticalLabelPosition=top;align=center;horizontal=1;" parent="1" vertex="1">
          <mxGeometry x="610" y="260" width="10" height="10" as="geometry" />
        </mxCell>
        <mxCell id="h8aSxiHESVSjdpus-O2o-155" style="edgeStyle=orthogonalEdgeStyle;rounded=0;orthogonalLoop=1;jettySize=auto;html=1;exitX=0.5;exitY=0;exitDx=0;exitDy=0;entryX=0;entryY=0.8;entryDx=0;entryDy=0;endArrow=none;endFill=0;" parent="1" source="h8aSxiHESVSjdpus-O2o-141" target="h8aSxiHESVSjdpus-O2o-150" edge="1">
          <mxGeometry relative="1" as="geometry" />
        </mxCell>
        <mxCell id="h8aSxiHESVSjdpus-O2o-141" value="" style="whiteSpace=wrap;html=1;aspect=fixed;verticalAlign=bottom;labelPosition=center;verticalLabelPosition=top;align=center;horizontal=1;" parent="1" vertex="1">
          <mxGeometry x="580" y="260" width="10" height="10" as="geometry" />
        </mxCell>
        <mxCell id="h8aSxiHESVSjdpus-O2o-142" value="0" style="text;html=1;align=left;verticalAlign=middle;whiteSpace=wrap;rounded=0;rotation=0;fontSize=9;horizontal=1;fontFamily=Lucida Console;" parent="1" vertex="1">
          <mxGeometry x="615" y="272" width="10" height="10" as="geometry" />
        </mxCell>
        <mxCell id="h8aSxiHESVSjdpus-O2o-143" value="&lt;div align=&quot;center&quot;&gt;SW&lt;/div&gt;" style="text;html=1;align=center;verticalAlign=middle;whiteSpace=wrap;rounded=0;rotation=0;fontSize=9;horizontal=1;fontFamily=Lucida Console;" parent="1" vertex="1">
          <mxGeometry x="580" y="271" width="40" height="10" as="geometry" />
        </mxCell>
        <mxCell id="h8aSxiHESVSjdpus-O2o-145" value="&lt;div align=&quot;right&quot;&gt;PINC&lt;/div&gt;" style="text;html=1;align=right;verticalAlign=middle;whiteSpace=wrap;rounded=0;rotation=0;fontSize=9;horizontal=1;fontFamily=Lucida Console;" parent="1" vertex="1">
          <mxGeometry x="540" y="260" width="40" height="10" as="geometry" />
        </mxCell>
        <mxCell id="h8aSxiHESVSjdpus-O2o-146" value="" style="shape=flexArrow;endArrow=none;html=1;rounded=0;endFill=0;startArrow=block;" parent="1" edge="1">
          <mxGeometry width="50" height="50" relative="1" as="geometry">
            <mxPoint x="599.76" y="340" as="sourcePoint" />
            <mxPoint x="600" y="280" as="targetPoint" />
          </mxGeometry>
        </mxCell>
        <mxCell id="h8aSxiHESVSjdpus-O2o-147" value="" style="endArrow=none;html=1;strokeWidth=2;rounded=0;strokeColor=#999999;" parent="1" edge="1">
          <mxGeometry width="50" height="50" relative="1" as="geometry">
            <mxPoint x="610" y="304" as="sourcePoint" />
            <mxPoint x="590" y="294" as="targetPoint" />
          </mxGeometry>
        </mxCell>
        <mxCell id="h8aSxiHESVSjdpus-O2o-148" value="8" style="edgeLabel;html=1;align=left;verticalAlign=middle;resizable=0;points=[];labelPosition=right;verticalLabelPosition=middle;fontColor=#999999;" parent="h8aSxiHESVSjdpus-O2o-147" vertex="1" connectable="0">
          <mxGeometry x="-0.44" y="1" relative="1" as="geometry">
            <mxPoint x="6" as="offset" />
          </mxGeometry>
        </mxCell>
        <mxCell id="L_umMG17DJ18Sw7gHSa4-48" style="edgeStyle=orthogonalEdgeStyle;rounded=0;orthogonalLoop=1;jettySize=auto;html=1;exitX=1;exitY=0.8;exitDx=0;exitDy=0;entryX=0.989;entryY=0.808;entryDx=0;entryDy=0;entryPerimeter=0;endArrow=none;endFill=0;" edge="1" parent="1">
          <mxGeometry relative="1" as="geometry">
            <mxPoint x="583.124" y="200.26" as="sourcePoint" />
            <mxPoint x="615.0906399999999" y="200.53033000000005" as="targetPoint" />
          </mxGeometry>
        </mxCell>
        <mxCell id="h8aSxiHESVSjdpus-O2o-150" value="" style="html=1;shape=mxgraph.electrical.electro-mechanical.pushbutton;aspect=fixed;elSwitchState=off;rotation=-90;" parent="1" vertex="1">
          <mxGeometry x="554.11" y="218.61" width="50.03" height="13.33" as="geometry" />
        </mxCell>
        <mxCell id="h8aSxiHESVSjdpus-O2o-162" value="" style="pointerEvents=1;verticalLabelPosition=bottom;shadow=0;dashed=0;align=center;html=1;verticalAlign=top;shape=mxgraph.electrical.signal_sources.signal_ground;rotation=-180;" parent="1" vertex="1">
          <mxGeometry x="578" y="191" width="10" height="10" as="geometry" />
        </mxCell>
        <mxCell id="h8aSxiHESVSjdpus-O2o-176" value="&lt;font style=&quot;font-size: 20px;&quot;&gt;Digital (Analog) Clock&lt;/font&gt;" style="text;html=1;strokeColor=none;fillColor=none;align=left;verticalAlign=middle;whiteSpace=wrap;rounded=0;" parent="1" vertex="1">
          <mxGeometry x="720" y="188.32999999999998" width="380" height="30" as="geometry" />
        </mxCell>
        <mxCell id="h8aSxiHESVSjdpus-O2o-177" value="Legend:" style="text;html=1;strokeColor=none;fillColor=none;align=center;verticalAlign=middle;whiteSpace=wrap;rounded=0;" parent="1" vertex="1">
          <mxGeometry x="1240" y="537" width="60" height="30" as="geometry" />
        </mxCell>
        <mxCell id="h8aSxiHESVSjdpus-O2o-178" value="Hardware" style="rounded=0;whiteSpace=wrap;html=1;" parent="1" vertex="1">
          <mxGeometry x="1250" y="561" width="90" height="28" as="geometry" />
        </mxCell>
        <mxCell id="h8aSxiHESVSjdpus-O2o-179" value="Software" style="ellipse;shape=cloud;whiteSpace=wrap;html=1;" parent="1" vertex="1">
          <mxGeometry x="1240" y="589" width="90" height="42.5" as="geometry" />
        </mxCell>
        <mxCell id="L_umMG17DJ18Sw7gHSa4-2" value="" style="shape=flexArrow;endArrow=block;html=1;rounded=0;endFill=0;startArrow=block;" edge="1" parent="1">
          <mxGeometry width="50" height="50" relative="1" as="geometry">
            <mxPoint x="538.26" y="570" as="sourcePoint" />
            <mxPoint x="538.5" y="510" as="targetPoint" />
          </mxGeometry>
        </mxCell>
        <mxCell id="L_umMG17DJ18Sw7gHSa4-3" value="" style="endArrow=none;html=1;strokeWidth=2;rounded=0;strokeColor=#999999;" edge="1" parent="1">
          <mxGeometry width="50" height="50" relative="1" as="geometry">
            <mxPoint x="548.5" y="544" as="sourcePoint" />
            <mxPoint x="528.5" y="534" as="targetPoint" />
          </mxGeometry>
        </mxCell>
        <mxCell id="L_umMG17DJ18Sw7gHSa4-4" value="8" style="edgeLabel;html=1;align=left;verticalAlign=middle;resizable=0;points=[];labelPosition=right;verticalLabelPosition=middle;fontColor=#999999;" vertex="1" connectable="0" parent="L_umMG17DJ18Sw7gHSa4-3">
          <mxGeometry x="-0.44" y="1" relative="1" as="geometry">
            <mxPoint x="6" as="offset" />
          </mxGeometry>
        </mxCell>
        <mxCell id="L_umMG17DJ18Sw7gHSa4-5" value="" style="whiteSpace=wrap;html=1;aspect=fixed;" vertex="1" parent="1">
          <mxGeometry x="720" y="555" width="75" height="75" as="geometry" />
        </mxCell>
        <mxCell id="L_umMG17DJ18Sw7gHSa4-7" value="" style="endArrow=none;html=1;rounded=0;exitX=0;exitY=1;exitDx=0;exitDy=0;entryX=0.978;entryY=0.012;entryDx=0;entryDy=0;entryPerimeter=0;" edge="1" parent="1" source="L_umMG17DJ18Sw7gHSa4-5" target="L_umMG17DJ18Sw7gHSa4-5">
          <mxGeometry width="50" height="50" relative="1" as="geometry">
            <mxPoint x="840" y="570" as="sourcePoint" />
            <mxPoint x="890" y="520" as="targetPoint" />
          </mxGeometry>
        </mxCell>
        <mxCell id="L_umMG17DJ18Sw7gHSa4-8" value="UART" style="text;html=1;strokeColor=none;fillColor=none;align=center;verticalAlign=middle;whiteSpace=wrap;rounded=0;" vertex="1" parent="1">
          <mxGeometry x="720" y="556" width="50" height="30" as="geometry" />
        </mxCell>
        <mxCell id="L_umMG17DJ18Sw7gHSa4-9" value="USB" style="text;html=1;strokeColor=none;fillColor=none;align=center;verticalAlign=middle;whiteSpace=wrap;rounded=0;" vertex="1" parent="1">
          <mxGeometry x="745" y="600" width="50" height="30" as="geometry" />
        </mxCell>
        <mxCell id="L_umMG17DJ18Sw7gHSa4-12" style="edgeStyle=orthogonalEdgeStyle;rounded=0;orthogonalLoop=1;jettySize=auto;html=1;exitX=0.5;exitY=1;exitDx=0;exitDy=0;exitPerimeter=0;entryX=0.25;entryY=1;entryDx=0;entryDy=0;shape=link;" edge="1" parent="1" source="L_umMG17DJ18Sw7gHSa4-10" target="L_umMG17DJ18Sw7gHSa4-9">
          <mxGeometry relative="1" as="geometry" />
        </mxCell>
        <mxCell id="L_umMG17DJ18Sw7gHSa4-10" value="" style="fontColor=#0066CC;verticalAlign=top;verticalLabelPosition=bottom;labelPosition=center;align=center;html=1;outlineConnect=0;fillColor=#CCCCCC;strokeColor=#6881B3;gradientColor=none;gradientDirection=north;strokeWidth=2;shape=mxgraph.networks.usb_stick;rotation=-180;" vertex="1" parent="1">
          <mxGeometry x="735" y="710" width="45" height="100" as="geometry" />
        </mxCell>
        <mxCell id="L_umMG17DJ18Sw7gHSa4-20" style="edgeStyle=orthogonalEdgeStyle;rounded=0;orthogonalLoop=1;jettySize=auto;html=1;exitX=0.25;exitY=1;exitDx=0;exitDy=0;endArrow=none;endFill=0;" edge="1" parent="1" source="L_umMG17DJ18Sw7gHSa4-16">
          <mxGeometry relative="1" as="geometry">
            <mxPoint x="1030" y="540" as="targetPoint" />
            <Array as="points">
              <mxPoint x="1020" y="540" />
            </Array>
          </mxGeometry>
        </mxCell>
        <mxCell id="L_umMG17DJ18Sw7gHSa4-21" style="edgeStyle=orthogonalEdgeStyle;rounded=0;orthogonalLoop=1;jettySize=auto;html=1;exitX=0.75;exitY=1;exitDx=0;exitDy=0;endArrow=none;endFill=0;" edge="1" parent="1" source="L_umMG17DJ18Sw7gHSa4-16">
          <mxGeometry relative="1" as="geometry">
            <mxPoint x="1050" y="540" as="targetPoint" />
            <Array as="points">
              <mxPoint x="1060" y="540" />
            </Array>
          </mxGeometry>
        </mxCell>
        <mxCell id="L_umMG17DJ18Sw7gHSa4-16" value="RTC" style="whiteSpace=wrap;html=1;aspect=fixed;" vertex="1" parent="1">
          <mxGeometry x="1000" y="415" width="80" height="80" as="geometry" />
        </mxCell>
        <mxCell id="L_umMG17DJ18Sw7gHSa4-17" value="Y1" style="rounded=0;whiteSpace=wrap;html=1;verticalAlign=top;labelPosition=center;verticalLabelPosition=bottom;align=center;" vertex="1" parent="1">
          <mxGeometry x="1035" y="525" width="10" height="30" as="geometry" />
        </mxCell>
        <mxCell id="L_umMG17DJ18Sw7gHSa4-18" value="" style="endArrow=none;html=1;rounded=0;" edge="1" parent="1">
          <mxGeometry width="50" height="50" relative="1" as="geometry">
            <mxPoint x="1030" y="550" as="sourcePoint" />
            <mxPoint x="1030" y="530" as="targetPoint" />
          </mxGeometry>
        </mxCell>
        <mxCell id="L_umMG17DJ18Sw7gHSa4-19" value="" style="endArrow=none;html=1;rounded=0;" edge="1" parent="1">
          <mxGeometry width="50" height="50" relative="1" as="geometry">
            <mxPoint x="1050" y="550" as="sourcePoint" />
            <mxPoint x="1050" y="530" as="targetPoint" />
          </mxGeometry>
        </mxCell>
        <mxCell id="L_umMG17DJ18Sw7gHSa4-25" style="edgeStyle=orthogonalEdgeStyle;rounded=0;orthogonalLoop=1;jettySize=auto;html=1;exitX=1;exitY=0.5;exitDx=0;exitDy=0;endArrow=none;endFill=0;startArrow=classic;startFill=1;" edge="1" parent="1" source="L_umMG17DJ18Sw7gHSa4-24" target="L_umMG17DJ18Sw7gHSa4-16">
          <mxGeometry relative="1" as="geometry" />
        </mxCell>
        <mxCell id="L_umMG17DJ18Sw7gHSa4-34" style="edgeStyle=orthogonalEdgeStyle;rounded=0;orthogonalLoop=1;jettySize=auto;html=1;" edge="1" parent="1" source="L_umMG17DJ18Sw7gHSa4-24">
          <mxGeometry relative="1" as="geometry">
            <mxPoint x="690" y="395" as="targetPoint" />
          </mxGeometry>
        </mxCell>
        <mxCell id="L_umMG17DJ18Sw7gHSa4-24" value="" style="whiteSpace=wrap;html=1;aspect=fixed;verticalAlign=bottom;labelPosition=center;verticalLabelPosition=top;align=center;horizontal=1;" vertex="1" parent="1">
          <mxGeometry x="952.5" y="390" width="10" height="10" as="geometry" />
        </mxCell>
        <mxCell id="L_umMG17DJ18Sw7gHSa4-31" style="edgeStyle=orthogonalEdgeStyle;rounded=0;orthogonalLoop=1;jettySize=auto;html=1;entryX=1;entryY=0.25;entryDx=0;entryDy=0;endArrow=none;endFill=0;" edge="1" parent="1" source="L_umMG17DJ18Sw7gHSa4-29" target="L_umMG17DJ18Sw7gHSa4-16">
          <mxGeometry relative="1" as="geometry">
            <Array as="points">
              <mxPoint x="1115" y="435" />
            </Array>
          </mxGeometry>
        </mxCell>
        <mxCell id="L_umMG17DJ18Sw7gHSa4-32" style="edgeStyle=orthogonalEdgeStyle;rounded=0;orthogonalLoop=1;jettySize=auto;html=1;exitX=0;exitY=0.5;exitDx=0;exitDy=0;exitPerimeter=0;entryX=1;entryY=0.75;entryDx=0;entryDy=0;endArrow=none;endFill=0;" edge="1" parent="1" source="L_umMG17DJ18Sw7gHSa4-29" target="L_umMG17DJ18Sw7gHSa4-16">
          <mxGeometry relative="1" as="geometry">
            <Array as="points">
              <mxPoint x="1115" y="475" />
            </Array>
          </mxGeometry>
        </mxCell>
        <mxCell id="L_umMG17DJ18Sw7gHSa4-29" value="3V" style="verticalLabelPosition=bottom;shadow=0;dashed=0;align=center;fillColor=strokeColor;html=1;verticalAlign=top;strokeWidth=1;shape=mxgraph.electrical.miscellaneous.monocell_battery;rotation=-90;" vertex="1" parent="1">
          <mxGeometry x="1100" y="437" width="30" height="36" as="geometry" />
        </mxCell>
        <mxCell id="L_umMG17DJ18Sw7gHSa4-35" value="MFP (PA7)" style="text;html=1;align=center;verticalAlign=middle;whiteSpace=wrap;rounded=0;rotation=0;fontSize=9;horizontal=1;fontFamily=Lucida Console;" vertex="1" parent="1">
          <mxGeometry x="882.5" y="380" width="70" height="10" as="geometry" />
        </mxCell>
        <mxCell id="L_umMG17DJ18Sw7gHSa4-36" value="Buzzer" style="pointerEvents=1;verticalLabelPosition=bottom;shadow=0;dashed=0;align=center;html=1;verticalAlign=top;shape=mxgraph.electrical.electro-mechanical.buzzer;" vertex="1" parent="1">
          <mxGeometry x="345" y="400" width="45" height="60" as="geometry" />
        </mxCell>
        <mxCell id="L_umMG17DJ18Sw7gHSa4-39" style="edgeStyle=orthogonalEdgeStyle;rounded=0;orthogonalLoop=1;jettySize=auto;html=1;exitX=1;exitY=0.5;exitDx=0;exitDy=0;entryX=0.097;entryY=0.524;entryDx=0;entryDy=0;entryPerimeter=0;endArrow=none;endFill=0;startArrow=classic;startFill=1;" edge="1" parent="1" source="L_umMG17DJ18Sw7gHSa4-37" target="2j-rZwEIqoR1VBWoCeoS-1">
          <mxGeometry relative="1" as="geometry" />
        </mxCell>
        <mxCell id="L_umMG17DJ18Sw7gHSa4-37" value="PB4" style="whiteSpace=wrap;html=1;aspect=fixed;verticalAlign=bottom;labelPosition=center;verticalLabelPosition=top;align=center;horizontal=1;" vertex="1" parent="1">
          <mxGeometry x="390" y="415" width="10" height="10" as="geometry" />
        </mxCell>
        <mxCell id="L_umMG17DJ18Sw7gHSa4-40" value="" style="pointerEvents=1;verticalLabelPosition=bottom;shadow=0;dashed=0;align=center;html=1;verticalAlign=top;shape=mxgraph.electrical.signal_sources.signal_ground;rotation=-90;" vertex="1" parent="1">
          <mxGeometry x="390" y="435" width="10" height="10" as="geometry" />
        </mxCell>
        <mxCell id="L_umMG17DJ18Sw7gHSa4-43" style="edgeStyle=orthogonalEdgeStyle;rounded=0;orthogonalLoop=1;jettySize=auto;html=1;exitX=1;exitY=0.5;exitDx=0;exitDy=0;entryX=0.161;entryY=0.262;entryDx=0;entryDy=0;entryPerimeter=0;" edge="1" parent="1" source="L_umMG17DJ18Sw7gHSa4-42" target="2j-rZwEIqoR1VBWoCeoS-1">
          <mxGeometry relative="1" as="geometry" />
        </mxCell>
        <mxCell id="L_umMG17DJ18Sw7gHSa4-44" value="External I/0" style="edgeLabel;html=1;align=center;verticalAlign=middle;resizable=0;points=[];" vertex="1" connectable="0" parent="L_umMG17DJ18Sw7gHSa4-43">
          <mxGeometry x="-0.0756" relative="1" as="geometry">
            <mxPoint as="offset" />
          </mxGeometry>
        </mxCell>
        <mxCell id="L_umMG17DJ18Sw7gHSa4-42" value="PB5&amp;nbsp;" style="whiteSpace=wrap;html=1;aspect=fixed;verticalAlign=bottom;labelPosition=center;verticalLabelPosition=top;align=center;horizontal=1;" vertex="1" parent="1">
          <mxGeometry x="300" y="360" width="10" height="10" as="geometry" />
        </mxCell>
        <mxCell id="L_umMG17DJ18Sw7gHSa4-45" value="" style="html=1;shape=mxgraph.electrical.electro-mechanical.pushbutton;aspect=fixed;elSwitchState=off;rotation=-90;" vertex="1" parent="1">
          <mxGeometry x="565.97" y="218.33" width="50.03" height="13.33" as="geometry" />
        </mxCell>
        <mxCell id="L_umMG17DJ18Sw7gHSa4-46" value="" style="html=1;shape=mxgraph.electrical.electro-mechanical.pushbutton;aspect=fixed;elSwitchState=off;rotation=-90;" vertex="1" parent="1">
          <mxGeometry x="575.97" y="218.33" width="50.03" height="13.33" as="geometry" />
        </mxCell>
        <mxCell id="L_umMG17DJ18Sw7gHSa4-47" value="" style="html=1;shape=mxgraph.electrical.electro-mechanical.pushbutton;aspect=fixed;elSwitchState=off;rotation=-90;" vertex="1" parent="1">
          <mxGeometry x="585.97" y="218.33" width="50.03" height="13.33" as="geometry" />
        </mxCell>
        <mxCell id="L_umMG17DJ18Sw7gHSa4-63" style="edgeStyle=orthogonalEdgeStyle;rounded=0;orthogonalLoop=1;jettySize=auto;html=1;entryX=-0.004;entryY=0.693;entryDx=0;entryDy=0;entryPerimeter=0;" edge="1" parent="1" source="L_umMG17DJ18Sw7gHSa4-49" target="L_umMG17DJ18Sw7gHSa4-53">
          <mxGeometry relative="1" as="geometry" />
        </mxCell>
        <mxCell id="L_umMG17DJ18Sw7gHSa4-49" value="" style="whiteSpace=wrap;html=1;aspect=fixed;verticalAlign=bottom;labelPosition=center;verticalLabelPosition=top;align=center;horizontal=1;" vertex="1" parent="1">
          <mxGeometry x="1040" y="309.09000000000003" width="10" height="10" as="geometry" />
        </mxCell>
        <mxCell id="L_umMG17DJ18Sw7gHSa4-64" style="edgeStyle=orthogonalEdgeStyle;rounded=0;orthogonalLoop=1;jettySize=auto;html=1;entryX=-0.004;entryY=0.815;entryDx=0;entryDy=0;entryPerimeter=0;" edge="1" parent="1" source="L_umMG17DJ18Sw7gHSa4-50" target="L_umMG17DJ18Sw7gHSa4-53">
          <mxGeometry relative="1" as="geometry" />
        </mxCell>
        <mxCell id="L_umMG17DJ18Sw7gHSa4-50" value="" style="whiteSpace=wrap;html=1;aspect=fixed;verticalAlign=bottom;labelPosition=center;verticalLabelPosition=top;align=center;horizontal=1;" vertex="1" parent="1">
          <mxGeometry x="1040" y="319.09000000000003" width="10" height="10" as="geometry" />
        </mxCell>
        <mxCell id="L_umMG17DJ18Sw7gHSa4-51" value="CLEAR (PA5)" style="text;html=1;align=center;verticalAlign=middle;whiteSpace=wrap;rounded=0;rotation=0;fontSize=9;horizontal=1;fontFamily=Lucida Console;" vertex="1" parent="1">
          <mxGeometry x="962.5" y="305.09000000000003" width="80" height="10" as="geometry" />
        </mxCell>
        <mxCell id="L_umMG17DJ18Sw7gHSa4-52" value="OUTPUT (PA6)" style="text;html=1;align=center;verticalAlign=middle;whiteSpace=wrap;rounded=0;rotation=0;fontSize=9;horizontal=1;fontFamily=Lucida Console;" vertex="1" parent="1">
          <mxGeometry x="962.5" y="315.09000000000003" width="80" height="10" as="geometry" />
        </mxCell>
        <mxCell id="L_umMG17DJ18Sw7gHSa4-53" value="HC595" style="whiteSpace=wrap;html=1;aspect=fixed;" vertex="1" parent="1">
          <mxGeometry x="1100" y="259.09" width="80" height="80" as="geometry" />
        </mxCell>
        <mxCell id="L_umMG17DJ18Sw7gHSa4-54" value="" style="curved=1;endArrow=none;html=1;rounded=0;endFill=0;" edge="1" parent="1">
          <mxGeometry width="50" height="50" relative="1" as="geometry">
            <mxPoint x="1191" y="355.09" as="sourcePoint" />
            <mxPoint x="1241" y="245.09" as="targetPoint" />
            <Array as="points">
              <mxPoint x="1241" y="324.18" />
              <mxPoint x="1191" y="274.18" />
            </Array>
          </mxGeometry>
        </mxCell>
        <mxCell id="L_umMG17DJ18Sw7gHSa4-55" value="HC595" style="whiteSpace=wrap;html=1;aspect=fixed;" vertex="1" parent="1">
          <mxGeometry x="1260" y="260.09" width="80" height="80" as="geometry" />
        </mxCell>
        <mxCell id="L_umMG17DJ18Sw7gHSa4-66" value="" style="verticalLabelPosition=bottom;shadow=0;dashed=0;align=center;html=1;verticalAlign=top;shape=mxgraph.electrical.opto_electronics.led_2;pointerEvents=1;rotation=90;" vertex="1" parent="1">
          <mxGeometry x="1117" y="349" width="50" height="30" as="geometry" />
        </mxCell>
        <mxCell id="L_umMG17DJ18Sw7gHSa4-67" value="" style="verticalLabelPosition=bottom;shadow=0;dashed=0;align=center;html=1;verticalAlign=top;shape=mxgraph.electrical.opto_electronics.led_2;pointerEvents=1;rotation=90;" vertex="1" parent="1">
          <mxGeometry x="1277" y="350" width="50" height="30" as="geometry" />
        </mxCell>
        <mxCell id="L_umMG17DJ18Sw7gHSa4-68" value="" style="pointerEvents=1;verticalLabelPosition=bottom;shadow=0;dashed=0;align=center;html=1;verticalAlign=top;shape=mxgraph.electrical.signal_sources.signal_ground;rotation=0;" vertex="1" parent="1">
          <mxGeometry x="1295" y="390" width="10" height="10" as="geometry" />
        </mxCell>
        <mxCell id="L_umMG17DJ18Sw7gHSa4-69" value="" style="pointerEvents=1;verticalLabelPosition=bottom;shadow=0;dashed=0;align=center;html=1;verticalAlign=top;shape=mxgraph.electrical.signal_sources.signal_ground;rotation=0;" vertex="1" parent="1">
          <mxGeometry x="1135" y="389" width="10" height="10" as="geometry" />
        </mxCell>
        <mxCell id="L_umMG17DJ18Sw7gHSa4-71" value="1" style="text;html=1;strokeColor=none;fillColor=none;align=center;verticalAlign=middle;whiteSpace=wrap;rounded=0;" vertex="1" parent="1">
          <mxGeometry x="1107" y="259.09000000000003" width="60" height="30" as="geometry" />
        </mxCell>
        <mxCell id="L_umMG17DJ18Sw7gHSa4-72" value="11" style="text;html=1;strokeColor=none;fillColor=none;align=center;verticalAlign=middle;whiteSpace=wrap;rounded=0;" vertex="1" parent="1">
          <mxGeometry x="1270" y="261.00000000000006" width="60" height="30" as="geometry" />
        </mxCell>
        <mxCell id="L_umMG17DJ18Sw7gHSa4-73" value="" style="endArrow=none;html=1;strokeWidth=2;rounded=0;strokeColor=#999999;" edge="1" parent="1">
          <mxGeometry width="50" height="50" relative="1" as="geometry">
            <mxPoint x="735" y="440" as="sourcePoint" />
            <mxPoint x="725" y="470" as="targetPoint" />
          </mxGeometry>
        </mxCell>
        <mxCell id="L_umMG17DJ18Sw7gHSa4-74" value="8" style="edgeLabel;html=1;align=left;verticalAlign=middle;resizable=0;points=[];labelPosition=right;verticalLabelPosition=middle;fontColor=#999999;" vertex="1" connectable="0" parent="L_umMG17DJ18Sw7gHSa4-73">
          <mxGeometry x="-0.44" y="1" relative="1" as="geometry">
            <mxPoint x="-8" y="-18" as="offset" />
          </mxGeometry>
        </mxCell>
        <mxCell id="L_umMG17DJ18Sw7gHSa4-76" value="" style="shape=flexArrow;endArrow=classic;html=1;rounded=0;entryX=0.5;entryY=1;entryDx=0;entryDy=0;startArrow=block;" edge="1" parent="1" target="h8aSxiHESVSjdpus-O2o-95">
          <mxGeometry width="50" height="50" relative="1" as="geometry">
            <mxPoint x="680" y="360" as="sourcePoint" />
            <mxPoint x="880" y="360" as="targetPoint" />
            <Array as="points">
              <mxPoint x="903" y="360" />
            </Array>
          </mxGeometry>
        </mxCell>
        <mxCell id="L_umMG17DJ18Sw7gHSa4-77" value="" style="endArrow=none;html=1;strokeWidth=2;rounded=0;strokeColor=#999999;" edge="1" parent="1">
          <mxGeometry width="50" height="50" relative="1" as="geometry">
            <mxPoint x="780" y="345" as="sourcePoint" />
            <mxPoint x="770" y="375" as="targetPoint" />
          </mxGeometry>
        </mxCell>
        <mxCell id="L_umMG17DJ18Sw7gHSa4-78" value="8" style="edgeLabel;html=1;align=left;verticalAlign=middle;resizable=0;points=[];labelPosition=right;verticalLabelPosition=middle;fontColor=#999999;" vertex="1" connectable="0" parent="L_umMG17DJ18Sw7gHSa4-77">
          <mxGeometry x="-0.44" y="1" relative="1" as="geometry">
            <mxPoint x="-8" y="-18" as="offset" />
          </mxGeometry>
        </mxCell>
      </root>
    </mxGraphModel>
  </diagram>
</mxfile>
